{"title":"Twelve LiMiTED 720p.BRRip.x264.Feel-Free","uid":6083496,"size":1831645242,"categoryP":"video","categoryS":"hd___movies","magnet":"?xt=urn:btih:911cf5ea8f04aa1fdf40bd3052aa1e738c28bf3d&amp;dn=Twelve+LiMiTED+720p.BRRip.x264.Feel-Free&amp;tr=udp%3A%2F%2Ftracker.openbittorrent.com%3A80&amp;tr=udp%3A%2F%2Fopen.demonii.com%3A1337&amp;tr=udp%3A%2F%2Ftracker.coppersurfer.tk%3A6969&amp;tr=udp%3A%2F%2Fexodus.desync.com%3A6969","seeders":0,"leechers":1,"uploader":"neon","files":-1,"time":1294216693,"description":"Genre:Drama | Thriller\nLanguage: English\n &lt;a href=&quot; http://www.imdb.com/title/tt1407084/&quot; rel=&quot;nofollow&quot; target=&quot;_NEW&quot;&gt; http://www.imdb.com/title/tt1407084/&lt;/a&gt;\nSource:BluRay.x264-TWiZTED\n\n\nFormat : Matroska\nFile size : 1.70 GiB\nDuration : 1h 34mn\nOverall bit rate : 2 576 Kbps\n\n\nVideo\nFormat settings, CABAC : Yes\nFormat settings, ReFrames : 4 frames\nFormat settings, GOP : M=1, N=32\nCodec ID : V_MPEG4/ISO/AVC\nDuration : 1h 34mn\nBit rate : 2 200 Kbps\nWidth : 1 280 pixels\nHeight : 688 pixels\nDisplay aspect ratio : 1.860\nFrame rate mode : Variable\nFrame rate : 23.976 fps\nColor space : YUV\nChroma subsampling : 4:2:0\nBit depth : 8 bits\nScan type : Progressive\nBits/(Pixel*Frame) : 0.104\nStream size : 1.41 GiB (83%)\nWriting library : x264\n\n\nAudio\nID : 2\nFormat : AC-3\nFormat/Info : Audio Coding 3\nMode extension : CM (complete main)\nCodec ID : A_AC3\nDuration : 1h 34mn\nBit rate mode : Constant\nBit rate : 384 Kbps\nChannel(s) : 6 channels\nChannel positions : Front: L C R, Side: L R, LFE\nSampling rate : 48.0 KHz\nBit depth : 16 bits\nVideo delay : -1mn 5s\nStream size : 260 MiB (15%)\nLanguage : English\n\n\n\nPlot\nA young drug dealer watches as his high-rolling life is dismantled in the wake of his cousin's murder, which sees his best friend arrested for the crime\n &lt;a href=&quot;\nhttp://shareimage.org/images/2gly8ks58tcyq3y4ycdz.png&quot; rel=&quot;nofollow&quot; target=&quot;_NEW&quot;&gt;\nhttp://shareimage.org/images/2gly8ks58tcyq3y4ycdz.png&lt;/a&gt; &lt;a href=&quot;\nhttp://shareimage.org/images/x8imgdrb1mdny3fo16uj.png&quot; rel=&quot;nofollow&quot; target=&quot;_NEW&quot;&gt;\nhttp://shareimage.org/images/x8imgdrb1mdny3fo16uj.png&lt;/a&gt; &lt;a href=&quot;\nhttp://shareimage.org/images/djydjtda18ou81ubqg8.png&quot; rel=&quot;nofollow&quot; target=&quot;_NEW&quot;&gt;\nhttp://shareimage.org/images/djydjtda18ou81ubqg8.png&lt;/a&gt;","torrent":{"xt":"urn:btih:911cf5ea8f04aa1fdf40bd3052aa1e738c28bf3d","amp;dn":"Twelve+LiMiTED+720p.BRRip.x264.Feel-Free","amp;tr":["udp%3A%2F%2Ftracker.openbittorrent.com%3A80","udp%3A%2F%2Fopen.demonii.com%3A1337","udp%3A%2F%2Ftracker.coppersurfer.tk%3A6969","udp%3A%2F%2Fexodus.desync.com%3A6969"],"infoHash":"911cf5ea8f04aa1fdf40bd3052aa1e738c28bf3d","infoHashBuffer":{"type":"Buffer","data":[145,28,245,234,143,4,170,31,223,64,189,48,82,170,30,115,140,40,191,61]},"announce":[],"urlList":[]}}